{"title":"Edge Of Tomorrow BDRip 480p x264 Dual Audio [Hindi-Eng] YsB TeaM","uid":11118827,"size":456648399,"categoryP":"video","categoryS":"movies","magnet":"?xt=urn:btih:0a49027b01f8af5be000967e774db35da90d21b0&amp;dn=Edge+Of+Tomorrow+BDRip+480p+x264+Dual+Audio+%5BHindi-Eng%5D+YsB+TeaM&amp;tr=udp%3A%2F%2Ftracker.openbittorrent.com%3A80&amp;tr=udp%3A%2F%2Fopen.demonii.com%3A1337&amp;tr=udp%3A%2F%2Ftracker.coppersurfer.tk%3A6969&amp;tr=udp%3A%2F%2Fexodus.desync.com%3A6969","seeders":4,"leechers":0,"uploader":"Dj_YsB","files":10,"time":1411886416,"description":"Edge Of Tomorrow BDRip 480p x264 Dual Audio [Hindi-Eng] YsB TeaM FL\n &lt;a href=&quot;\nhttp://i.imgur.com/trmEBBo.jpg&quot; rel=&quot;nofollow&quot; target=&quot;_NEW&quot;&gt;\nhttp://i.imgur.com/trmEBBo.jpg&lt;/a&gt;\n\nInfo:\nGeneral\nComplete name                            : Edge Of Tomorrow BDRip 480p x264 Dual Audio [Hindi-Eng] YsB TeaM FL.mkv\nFormat                                   : Matroska\nFormat version                           : Version 4 / Version 2\nFile size                                : 430 MiB\nDuration                                 : 1h 53mn\nOverall bit rate                         : 530 Kbps\nMovie name                               : Edge Of Tomorrow BDRip 480p x264 Dual Audio [Hindi-Eng] YsB TeaM FL\nVideo\nID                                       : 1\nFormat                                   : AVC\nDuration                                 : 1h 53mn\nBit rate                                 : 400 Kbps\nWidth                                    : 848 pixels\nHeight                                   : 352 pixels\nFrame rate mode                          : Constant\nFrame rate                               : 23.976 fps\nStream size                              : 318 MiB (74%)\nTitle                                    : YsB TeaM FL\n\n\nAudio #1\nID                                       : 2\nFormat                                   : AC-3\nDuration                                 : 1h 53mn\nBit rate mode                            : Constant\nBit rate                                 : 64.0 Kbps\nChannel(s)                               : 2 channels\nChannel positions                        : Front: L R\nSampling rate                            : 48.0 KHz\nStream size                              : 52.0 MiB (12%)\nTitle                                    : YsB TeaM FL\nLanguage                                 : Hindi\n\nAudio #2\nID                                       : 3\nFormat                                   : AC-3\nDuration                                 : 1h 53mn\nBit rate mode                            : Constant\nBit rate                                 : 64.0 Kbps\nChannel(s)                               : 2 channels\nChannel positions                        : Front: L R\nSampling rate                            : 48.0 KHz\nStream size                              : 52.0 MiB (12%)\nTitle                                    : YsB TeaM FL\nLanguage                                 : English\n\nText #1\nID                                       : 4\nFormat                                   : UTF-8\nCodec ID                                 : S_TEXT/UTF8\nCodec ID/Info                            : UTF-8 Plain Text\nTitle                                    : YsB TeaM FL [Full]\nLanguage                                 : English\nDefault                                  : No\nForced                                   : No\n\nText #2\nID                                       : 5\nFormat                                   : UTF-8\nCodec ID                                 : S_TEXT/UTF8\nCodec ID/Info                            : UTF-8 Plain Text\nTitle                                    : YsB TeaM FL [SDH]\nLanguage                                 : English\nDefault                                  : No\nForced                                   : No\n\nText #3\nID                                       : 6\nFormat                                   : UTF-8\nCodec ID                                 : S_TEXT/UTF8\nCodec ID/Info                            : UTF-8 Plain Text\nTitle                                    : YsB TeaM FL [ SDH (Colored)]\nLanguage                                 : English\nDefault                                  : No\nForced                                   : No\n\nMenu\n00:00:00.000                             : en:00:00:00.000\n00:10:28.169                             : en:00:10:28.169\n00:17:39.100                             : en:00:17:39.100\n00:24:50.197                             : en:00:24:50.197\n00:35:57.947                             : en:00:35:57.947\n00:46:27.284                             : en:00:46:27.284\n00:54:34.771                             : en:00:54:34.771\n01:04:59.562                             : en:01:04:59.562\n01:12:53.077                             : en:01:12:53.077\n01:23:08.901                             : en:01:23:08.901\n01:32:34.132                             : en:01:32:34.132\n01:42:53.584                             : en:01:42:53.584\n01:45:46.215                             : en:01:45:46.215\n\nScreenShot: &lt;a href=&quot;\nhttp://i.imgur.com/SvnRrmN.jpg&quot; rel=&quot;nofollow&quot; target=&quot;_NEW&quot;&gt;\nhttp://i.imgur.com/SvnRrmN.jpg&lt;/a&gt; &lt;a href=&quot;\nhttp://i.imgur.com/npMO5FB.jpg&quot; rel=&quot;nofollow&quot; target=&quot;_NEW&quot;&gt;\nhttp://i.imgur.com/npMO5FB.jpg&lt;/a&gt; &lt;a href=&quot;\nhttp://i.imgur.com/mmUnbCp.jpg&quot; rel=&quot;nofollow&quot; target=&quot;_NEW&quot;&gt;\nhttp://i.imgur.com/mmUnbCp.jpg&lt;/a&gt;\n\nThanks\nGPsoft.\nTeaM FL - Dj YsB, Hemkumar, Sajan...","torrent":{"xt":"urn:btih:0a49027b01f8af5be000967e774db35da90d21b0","amp;dn":"Edge+Of+Tomorrow+BDRip+480p+x264+Dual+Audio+%5BHindi-Eng%5D+YsB+TeaM","amp;tr":["udp%3A%2F%2Ftracker.openbittorrent.com%3A80","udp%3A%2F%2Fopen.demonii.com%3A1337","udp%3A%2F%2Ftracker.coppersurfer.tk%3A6969","udp%3A%2F%2Fexodus.desync.com%3A6969"],"infoHash":"0a49027b01f8af5be000967e774db35da90d21b0","infoHashBuffer":{"type":"Buffer","data":[10,73,2,123,1,248,175,91,224,0,150,126,119,77,179,93,169,13,33,176]},"announce":[],"urlList":[]}}